<?xml version="1.0" encoding="UTF-8" standalone="no"?>
<!DOCTYPE svg PUBLIC "-//W3C//DTD SVG 1.1//EN" "http://www.w3.org/Graphics/SVG/1.1/DTD/svg11.dtd">
<svg version="1.1" xmlns="http://www.w3.org/2000/svg" xmlns:xlink="http://www.w3.org/1999/xlink" preserveAspectRatio="xMidYMid meet" viewBox="-1.0000000000000568 -1.0000000000000568 644 644" width="640" height="640"><defs><path d="M0 320C0 496.45 143.56 640 320 640C496.45 640 640 496.45 640 320C640 143.56 496.45 0 320 0C143.56 0 0 143.56 0 320ZM26.67 320C26.67 158.26 158.26 26.67 320 26.67C481.75 26.67 613.33 158.26 613.33 320C613.33 481.75 481.75 613.33 320 613.33C158.26 613.33 26.67 481.75 26.67 320Z" id="ayxukWSi4"></path><path d="M346.67 320C346.67 310.26 341.16 302.09 333.33 297.43C333.33 277.02 333.33 113.74 333.33 93.33C333.33 85.96 327.37 80 320 80C312.63 80 306.67 85.96 306.67 93.33C306.67 113.74 306.67 277.02 306.67 297.43C298.84 302.09 293.33 310.26 293.33 320C293.33 334.7 305.3 346.67 320 346.67C322.3 346.67 324.36 345.9 326.5 345.35C336.9 355.76 420.16 439.02 430.57 449.43C433.18 452.03 436.59 453.33 440 453.33C443.41 453.33 446.82 452.03 449.43 449.43C454.63 444.22 454.63 435.78 449.43 430.57C442.49 423.63 407.8 388.94 345.35 326.5C346.23 323.7 346.67 321.54 346.67 320Z" id="bzuwRwsJv"></path></defs><g><g><use xlink:href="#ayxukWSi4" opacity="1" fill="#58EDB9" fill-opacity="1"></use><g><use xlink:href="#ayxukWSi4" opacity="1" fill-opacity="0" stroke="#000000" stroke-width="1" stroke-opacity="0"></use></g></g><g><use xlink:href="#bzuwRwsJv" opacity="1" fill="#58EDB9" fill-opacity="1"></use><g><use xlink:href="#bzuwRwsJv" opacity="1" fill-opacity="0" stroke="#000000" stroke-width="1" stroke-opacity="0"></use></g></g></g></svg>