<?xml version="1.0" encoding="iso-8859-1"?>
<!-- Generator: Adobe Illustrator 19.0.0, SVG Export Plug-In . SVG Version: 6.00 Build 0)  -->
<svg version="1.1" id="Capa_1" xmlns="http://www.w3.org/2000/svg" xmlns:xlink="http://www.w3.org/1999/xlink" x="0px" y="0px"
	 viewBox="0 0 496 496" style="enable-background:new 0 0 496 496;" xml:space="preserve">
<g>
	<g>
		<path d="M184,0c-22.056,0-40,17.944-40,40v16h16V40c0-13.232,10.768-24,24-24s24,10.768,24,24v16h16V40
			C224,17.944,206.056,0,184,0z"/>
	</g>
</g>
<g>
	<g>
		<path d="M270.248,48H97.752l-20,80h212.496L270.248,48z M98.248,112l12-48h147.504l12,48H98.248z"/>
	</g>
</g>
<g>
	<g>
		<path d="M352,448v8c0,13.232-10.768,24-24,24H40c-13.232,0-24-10.768-24-24V104c0-13.232,10.768-24,24-24h55.912V64H40
			C17.944,64,0,81.944,0,104v352c0,22.056,17.944,40,40,40h288c22.056,0,40-17.944,40-40v-8H352z"/>
	</g>
</g>
<g>
	<g>
		<path d="M328,64h-55.832v16H328c13.232,0,24,10.768,24,24v248h16V104C368,81.944,350.056,64,328,64z"/>
	</g>
</g>
<g>
	<g>
		<rect x="320" y="328" width="16" height="24"/>
	</g>
</g>
<g>
	<g>
		<polygon points="280,96 280,112 320,112 320,312 336,312 336,96 		"/>
	</g>
</g>
<g>
	<g>
		<polygon points="32,96 32,488 48,488 48,112 88,112 88,96 		"/>
	</g>
</g>
<g>
	<g>
		<rect x="320" y="448" width="16" height="40"/>
	</g>
</g>
<g>
	<g>
		<path d="M456,376H184c-22.056,0-40,17.944-40,40c0,22.056,17.944,40,40,40h272c22.056,0,40-17.944,40-40
			C496,393.944,478.056,376,456,376z M456,440H184c-13.232,0-24-10.768-24-24s10.768-24,24-24h272c13.232,0,24,10.768,24,24
			S469.232,440,456,440z"/>
	</g>
</g>
<g>
	<g>
		<path d="M129.704,413.824l23.28-5.824H160v-16h-8l-26.176,6.304C117.68,400.336,112,407.616,112,416
			c0,8.384,5.68,15.664,13.816,17.696l24.24,6.064L160,440v-16h-7.016l-23.28-5.824C128.696,417.928,128,417.032,128,416
			C128,414.968,128.696,414.072,129.704,413.824z"/>
	</g>
</g>
<g>
	<g>
		<path d="M424,344H280c-13.232,0-24,10.768-24,24s10.768,24,24,24h144c13.232,0,24-10.768,24-24S437.232,344,424,344z M424,376H280
			c-4.408,0-8-3.584-8-8c0-4.416,3.592-8,8-8h144c4.408,0,8,3.584,8,8C432,372.416,428.408,376,424,376z"/>
	</g>
</g>
<g>
	<g>
		<rect x="400" y="384" width="16" height="64"/>
	</g>
</g>
<g>
	<g>
		<polygon points="176,384 176,368 80,368 80,464 176,464 176,448 96,448 96,384 		"/>
	</g>
</g>
<g>
	<g>
		<path d="M80,256v96h96v-96H80z M160,336H96v-64h64V336z"/>
	</g>
</g>
<g>
	<g>
		<path d="M80,144v96h96v-96H80z M160,224H96v-64h64V224z"/>
	</g>
</g>
<g>
	<g>
		<polygon points="187.2,265.6 128.752,309.44 117.656,298.344 106.344,309.656 127.248,330.56 196.8,278.4 		"/>
	</g>
</g>
<g>
	<g>
		<polygon points="187.2,153.6 128.752,197.44 117.656,186.344 106.344,197.656 127.248,218.56 196.8,166.4 		"/>
	</g>
</g>
<g>
	<g>
		<rect x="224" y="152" width="64" height="16"/>
	</g>
</g>
<g>
	<g>
		<rect x="224" y="184" width="64" height="16"/>
	</g>
</g>
<g>
	<g>
		<rect x="224" y="216" width="64" height="16"/>
	</g>
</g>
<g>
	<g>
		<rect x="224" y="264" width="64" height="16"/>
	</g>
</g>
<g>
	<g>
		<rect x="224" y="296" width="64" height="16"/>
	</g>
</g>
<g>
	<g>
		<rect x="224" y="328" width="16" height="16"/>
	</g>
</g>
<g>
	<g>
		<rect x="128" y="80" width="16" height="16"/>
	</g>
</g>
<g>
	<g>
		<rect x="224" y="80" width="16" height="16"/>
	</g>
</g>
<g>
</g>
<g>
</g>
<g>
</g>
<g>
</g>
<g>
</g>
<g>
</g>
<g>
</g>
<g>
</g>
<g>
</g>
<g>
</g>
<g>
</g>
<g>
</g>
<g>
</g>
<g>
</g>
<g>
</g>
</svg>
