<?xml version="1.0" encoding="iso-8859-1"?>
<!-- Generator: Adobe Illustrator 19.0.0, SVG Export Plug-In . SVG Version: 6.00 Build 0)  -->
<svg version="1.1" id="Capa_1" xmlns="http://www.w3.org/2000/svg" xmlns:xlink="http://www.w3.org/1999/xlink" x="0px" y="0px"
	 viewBox="0 0 512 512" style="enable-background:new 0 0 512 512;" xml:space="preserve">
<g>
	<g>
		<path d="M4.594,34.683L16.23,90.775L0,134.241l15.785,42.266L0,218.776l15.785,42.266L0,303.307l15.785,42.268L0,387.842
			l16.229,43.46L4.594,487.388h380.431V34.683H4.594z M355.001,457.366H41.485l5.903-28.449l-15.34-41.074l15.784-42.266
			l-15.784-42.269l15.784-42.265l-15.784-42.266l15.784-42.268L32.047,134.24l15.34-41.079l-5.903-28.454h313.516V457.366z"/>
	</g>
</g>
<g>
	<g>
		<polygon points="140.75,109.585 123.301,127.033 115.208,118.939 93.979,140.169 123.301,169.491 161.979,130.815 		"/>
	</g>
</g>
<g>
	<g>
		<rect x="188.774" y="123.894" width="112.246" height="30.023"/>
	</g>
</g>
<g>
	<g>
		<polygon points="140.75,194.122 123.301,211.569 115.208,203.476 93.979,224.706 123.301,254.028 161.979,215.352 		"/>
	</g>
</g>
<g>
	<g>
		<rect x="188.774" y="208.429" width="112.246" height="30.023"/>
	</g>
</g>
<g>
	<g>
		<polygon points="140.75,278.658 123.301,296.106 115.208,288.012 93.979,309.242 123.301,338.564 161.979,299.888 		"/>
	</g>
</g>
<g>
	<g>
		<rect x="188.774" y="292.973" width="112.246" height="30.023"/>
	</g>
</g>
<g>
	<g>
		<polygon points="140.75,363.195 123.301,380.641 115.208,372.548 93.979,393.777 123.301,423.101 161.979,384.424 		"/>
	</g>
</g>
<g>
	<g>
		<rect x="188.774" y="377.508" width="112.246" height="30.023"/>
	</g>
</g>
<g>
	<g>
		<path d="M463.383,12.779h-1.745c-26.807,0-48.617,21.81-48.617,48.617v383.039l49.49,54.786L512,444.435V61.396
			C512,34.589,490.19,12.779,463.383,12.779z M481.977,432.882l-19.467,21.55l-19.467-21.55v-22.159h38.934V432.882z M481.977,380.7
			h-38.934V158.826h38.934V380.7z M481.977,128.803h-38.934v-24.737h38.934V128.803z M481.977,74.042h-38.934V61.396
			c0-10.253,8.341-18.594,18.594-18.594h1.745c10.253,0,18.594,8.341,18.594,18.594V74.042z"/>
	</g>
</g>
<g>
</g>
<g>
</g>
<g>
</g>
<g>
</g>
<g>
</g>
<g>
</g>
<g>
</g>
<g>
</g>
<g>
</g>
<g>
</g>
<g>
</g>
<g>
</g>
<g>
</g>
<g>
</g>
<g>
</g>
</svg>
