<svg height="512" viewBox="0 0 64 64" width="512" xmlns="http://www.w3.org/2000/svg"><g id="Calculator"><path d="m30 20h-22a2 2 0 0 0 -2 2v4a2 2 0 0 0 2 2h22a2 2 0 0 0 2-2v-4a2 2 0 0 0 -2-2zm-22 6v-4h22v4z"/><path d="m11 39h2v-2h2v-2h-2v-2h-2v2h-2v2h2z"/><path d="m23 35h6v2h-6z"/><path d="m10.832 54.555 1.168-1.752 1.168 1.752 1.664-1.11-1.63-2.445 1.63-2.445-1.664-1.11-1.168 1.752-1.168-1.752-1.664 1.11 1.63 2.445-1.63 2.445z"/><path d="m23 50h6v2h-6z"/><path d="m25 47h2v2h-2z"/><path d="m25 53h2v2h-2z"/><path d="m59 13a9 9 0 1 0 -9 9 9.01 9.01 0 0 0 9-9zm-9 7a7 7 0 1 1 7-7 7.008 7.008 0 0 1 -7 7z"/><path d="m50 10a1 1 0 0 1 1 1h2a3 3 0 0 0 -2-2.816v-1.184h-2v1.184a2.993 2.993 0 0 0 1 5.816 1 1 0 1 1 -1 1h-2a3 3 0 0 0 2 2.816v1.184h2v-1.184a2.993 2.993 0 0 0 -1-5.816 1 1 0 0 1 0-2z"/><path d="m61 34h-2v-2h1a1 1 0 0 0 1-1v-4a1 1 0 0 0 -1-1h-1v-3a1 1 0 0 0 -1-1h-16a1 1 0 0 0 -1 1v4a1 1 0 0 0 1 1h1v2h-1a1 1 0 0 0 -1 1v3h-5v-13a5 5 0 0 0 -5-5h-24a5 5 0 0 0 -5 5v36c0 3.13 1.5 5 4 5h55a1 1 0 0 0 1-1v-26a1 1 0 0 0 -1-1zm-27 23a3.009 3.009 0 0 1 -3 3h-25c-.49 0-2 0-2-3v-36a3.009 3.009 0 0 1 3-3h24a3.009 3.009 0 0 1 3 3zm25-29v2h-2v-2zm-4-4h2v2h-2zm2 8v2h-2v-2zm-2-2h-2v-2h2zm-4-6h2v2h-2zm2 8v2h-2v-2zm-2-4v2h-2v-2zm-4-4h2v2h-2zm2 8v2h-2v-2zm-2-2h-2v-2h2zm-4-6h2v2h-2zm0 8h2v2h-2zm-7 12.14a4.231 4.231 0 0 1 1-.14 4 4 0 0 1 0 8 4.231 4.231 0 0 1 -1-.14zm0 9.77a5.551 5.551 0 0 0 1 .09 6 6 0 0 0 0-12 5.551 5.551 0 0 0 -1 .09v-2.09h16.1a5.01 5.01 0 0 0 3.9 3.9v8.2a5.01 5.01 0 0 0 -3.9 3.9h-16.1zm24 6.09h-25.03a4.84 4.84 0 0 0 .93-2h17.1a1 1 0 0 0 1-1 3.009 3.009 0 0 1 3-3 1 1 0 0 0 1-1v-10a1 1 0 0 0 -1-1 3.009 3.009 0 0 1 -3-3 1 1 0 0 0 -1-1h-17v-2h24z"/><path d="m17 44h-10a1 1 0 0 0 -1 1v12a1 1 0 0 0 1 1h10a1 1 0 0 0 1-1v-12a1 1 0 0 0 -1-1zm-1 12h-8v-10h8z"/><path d="m17 30h-10a1 1 0 0 0 -1 1v10a1 1 0 0 0 1 1h10a1 1 0 0 0 1-1v-10a1 1 0 0 0 -1-1zm-1 10h-8v-8h8z"/><path d="m31 30h-10a1 1 0 0 0 -1 1v10a1 1 0 0 0 1 1h10a1 1 0 0 0 1-1v-10a1 1 0 0 0 -1-1zm-1 10h-8v-8h8z"/><path d="m31 44h-10a1 1 0 0 0 -1 1v12a1 1 0 0 0 1 1h10a1 1 0 0 0 1-1v-12a1 1 0 0 0 -1-1zm-1 12h-8v-10h8z"/><path d="m39 4h2v2h-2z"/><path d="m35 4h2v2h-2z"/><path d="m37 2h2v2h-2z"/><path d="m37 6h2v2h-2z"/><path d="m33 10h2v2h-2z"/><path d="m29 10h2v2h-2z"/><path d="m31 8h2v2h-2z"/><path d="m31 12h2v2h-2z"/><path d="m27 4h2v2h-2z"/><path d="m23 4h2v2h-2z"/><path d="m25 2h2v2h-2z"/><path d="m25 6h2v2h-2z"/></g></svg>