<svg id="Out_line" height="512" viewBox="0 0 512 512" width="512" xmlns="http://www.w3.org/2000/svg" data-name="Out line"><path d="m16 24v320h16v-312h128v168h16v-176a8.00008 8.00008 0 0 0 -8-8h-144a8.00008 8.00008 0 0 0 -8 8z"/><path d="m128 224v16h16v-184a8.00008 8.00008 0 0 0 -8-8h-80a8.00008 8.00008 0 0 0 -8 8v240a8.00008 8.00008 0 0 0 8 8h24v-16h-16v-64zm-64-16v-64h64v64zm0-144h64v64h-64z"/><path d="m429.75488 195.38232a8 8 0 0 0 0-11.31347l-101.82324-101.82324a8.00119 8.00119 0 0 0 -11.31445 0l-224.09766 224.09765 11.31447 11.31348 218.44041-218.44092 90.50977 90.50977-124.61818 124.61767 11.31445 11.31348z"/><path d="m262.22461 317.65723 122.27539-122.27491a8 8 0 0 0 0-11.31347l-56.56836-56.56836a8.00119 8.00119 0 0 0 -11.31445 0l-169.70606 169.70556a8 8 0 0 0 .001 11.314l9.13769 9.13721 11.3125-11.31446-3.48046-3.48 45.25463-45.25464 45.25584 45.25484-3.48022 3.47973zm3.4812-116.61792 45.25488 45.25537-45.25439 45.25439-45.25586-45.25488zm56.5686-56.56812 45.25489 45.2544-45.25489 45.25488-45.25463-45.25513z"/><path d="m488 336h-392a80 80 0 0 0 0 160h392a8.00008 8.00008 0 0 0 8-8v-144a8.00008 8.00008 0 0 0 -8-8zm-8 144h-384a64 64 0 0 1 0-128h384z"/><path d="m216 464h240a8.00008 8.00008 0 0 0 8-8v-80a8.00008 8.00008 0 0 0 -8-8h-240a8.00008 8.00008 0 0 0 -8 8v80a8.00008 8.00008 0 0 0 8 8zm232-16h-64v-64h64zm-80 0h-64v-64h64zm-144-64h64v64h-64z"/><path d="m48 416a48 48 0 1 0 48-48 48.05405 48.05405 0 0 0 -48 48zm80 0a32 32 0 1 1 -32-32 32.03635 32.03635 0 0 1 32 32z"/><path d="m88 404.686h16v22.627h-16z" transform="matrix(.707 -.707 .707 .707 -266.039 189.726)"/></svg>