<?xml version="1.0" encoding="UTF-8" standalone="no"?>
<!DOCTYPE svg PUBLIC "-//W3C//DTD SVG 1.1//EN" "http://www.w3.org/Graphics/SVG/1.1/DTD/svg11.dtd">
<svg version="1.1" xmlns="http://www.w3.org/2000/svg" xmlns:xlink="http://www.w3.org/1999/xlink" preserveAspectRatio="xMidYMid meet" viewBox="0 0 640 640" width="640" height="640"><defs><path d="M61.32 218.74C30.31 222.6 0.99 242.87 0.99 289.93C0.99 301.27 0.99 392 0.99 403.35C0.99 456.44 38.16 475.74 73.38 475.74C76.88 475.74 104.88 475.74 108.38 475.74C115.04 475.74 120.45 470.34 120.45 463.68C120.45 440.32 120.45 253.44 120.45 230.08C120.45 223.41 115.04 218.02 108.38 218.02C106.09 218.02 87.75 218.02 85.46 218.02C85.46 111.39 171.88 24.97 278.51 24.97C385.13 24.97 471.56 111.39 471.56 218.02C469.27 218.02 450.93 218.02 448.63 218.02C441.98 218.02 436.57 223.41 436.57 230.08C436.57 253.4 436.57 440 436.57 463.32C436.57 469.98 441.98 475.38 448.63 475.38C450.93 475.38 469.27 475.38 471.56 475.38C468.19 558.28 428.37 577.7 348.85 581.2C348.85 580.39 348.85 573.92 348.85 573.12C348.85 559.79 338.05 548.98 324.72 548.98C317.13 548.98 256.42 548.98 248.83 548.98C235.49 548.98 224.69 559.79 224.69 573.12C224.69 577.04 224.69 608.41 224.69 612.33C224.69 625.66 235.49 636.46 248.83 636.46C256.43 636.46 317.35 636.46 324.97 636.46C338.29 636.46 349.09 625.66 349.09 612.33C349.09 611.63 349.09 606.04 349.09 605.33C425.59 601.83 491.71 586.03 495.7 474.66C526.71 470.8 556.02 450.52 556.02 403.47C556.02 392.13 556.02 301.39 556.02 290.05C556.02 242.75 526.83 222.6 495.7 218.74C495.7 98.79 398.46 1.55 278.51 1.55C158.56 1.55 61.32 98.79 61.32 218.74ZM72.79 451.25C54.93 451.25 24.52 444.98 24.52 402.98C24.52 391.65 24.52 300.91 24.52 289.56C24.52 247.94 54.56 241.3 72.79 241.3C74.36 241.3 82.19 241.3 96.31 241.3C96.31 255.3 96.31 325.28 96.31 451.25C81.67 451.25 73.83 451.25 72.79 451.25ZM248.83 612.45L248.83 573.24L324.97 573.24L324.97 594.11L324.97 612.45L248.83 612.45ZM460.71 451.61C460.71 430.67 460.71 263.09 460.71 242.14C474.82 242.14 482.66 242.14 484.23 242.14C502.08 242.14 532.49 248.42 532.49 290.41C532.45 297.94 532.25 335.59 531.9 403.35C511.87 435.52 495.78 451.61 483.63 451.61C482.1 451.61 474.46 451.61 460.71 451.61Z" id="b2KpWy3qc8"></path><path d="M61.32 218.74C30.31 222.6 0.99 242.87 0.99 289.93C0.99 301.27 0.99 392 0.99 403.35C0.99 456.44 38.16 475.74 73.38 475.74C76.88 475.74 104.88 475.74 108.38 475.74C115.04 475.74 120.45 470.34 120.45 463.68C120.45 440.32 120.45 253.44 120.45 230.08C120.45 223.41 115.04 218.02 108.38 218.02C106.09 218.02 87.75 218.02 85.46 218.02C85.46 111.39 171.88 24.97 278.51 24.97C385.13 24.97 471.56 111.39 471.56 218.02C469.27 218.02 450.93 218.02 448.63 218.02C441.98 218.02 436.57 223.41 436.57 230.08C436.57 253.4 436.57 440 436.57 463.32C436.57 469.98 441.98 475.38 448.63 475.38C450.93 475.38 469.27 475.38 471.56 475.38C468.19 558.28 428.37 577.7 348.85 581.2C348.85 580.39 348.85 573.92 348.85 573.12C348.85 559.79 338.05 548.98 324.72 548.98C317.13 548.98 256.42 548.98 248.83 548.98C235.49 548.98 224.69 559.79 224.69 573.12C224.69 577.04 224.69 608.41 224.69 612.33C224.69 625.66 235.49 636.46 248.83 636.46C256.43 636.46 317.35 636.46 324.97 636.46C338.29 636.46 349.09 625.66 349.09 612.33C349.09 611.63 349.09 606.04 349.09 605.33C425.59 601.83 491.71 586.03 495.7 474.66C526.71 470.8 556.02 450.52 556.02 403.47C556.02 392.13 556.02 301.39 556.02 290.05C556.02 242.75 526.83 222.6 495.7 218.74C495.7 98.79 398.46 1.55 278.51 1.55C158.56 1.55 61.32 98.79 61.32 218.74ZM72.79 451.25C54.93 451.25 24.52 444.98 24.52 402.98C24.52 391.65 24.52 300.91 24.52 289.56C24.52 247.94 54.56 241.3 72.79 241.3C74.36 241.3 82.19 241.3 96.31 241.3C96.31 255.3 96.31 325.28 96.31 451.25C81.67 451.25 73.83 451.25 72.79 451.25ZM248.83 612.45L248.83 573.24L324.97 573.24L324.97 594.11L324.97 612.45L248.83 612.45ZM460.71 451.61C460.71 430.67 460.71 263.09 460.71 242.14C474.82 242.14 482.66 242.14 484.23 242.14C502.08 242.14 532.49 248.42 532.49 290.41C532.45 297.94 532.25 335.59 531.9 403.35C511.87 435.52 495.78 451.61 483.63 451.61C482.1 451.61 474.46 451.61 460.71 451.61Z" id="duny4HkjP"></path></defs><g><g><g><use xlink:href="#b2KpWy3qc8" opacity="1" fill="#597989" fill-opacity="1"></use><g><use xlink:href="#b2KpWy3qc8" opacity="1" fill-opacity="0" stroke="#000000" stroke-width="1" stroke-opacity="0"></use></g></g><g><use xlink:href="#duny4HkjP" opacity="1" fill="#58EDB9" fill-opacity="1"></use><g><use xlink:href="#duny4HkjP" opacity="1" fill-opacity="0" stroke="#000000" stroke-width="1" stroke-opacity="0"></use></g></g></g></g></svg>